HIERARCHY
ROOT hip
{
  OFFSET 0 0 0
  CHANNELS 6 Xposition Yposition Zposition Zrotation Yrotation Xrotation
  JOINT abdomen
  {
    OFFSET 0 20.6881 -0.73152
    CHANNELS 3 Zrotation Xrotation Yrotation
    JOINT chest
    {
      OFFSET 0 11.7043 -0.48768
      CHANNELS 3 Zrotation Xrotation Yrotation
      JOINT neck
      {
        OFFSET 0 22.1894 -2.19456
        CHANNELS 3 Zrotation Xrotation Yrotation
        JOINT head
        {
          OFFSET -0.24384 7.07133 1.2192
          CHANNELS 3 Zrotation Xrotation Yrotation
          JOINT leftEye
          {
            OFFSET 4.14528 8.04674 8.04672
            CHANNELS 3 Zrotation Xrotation Yrotation
            End Site
            {
              OFFSET 1 0 0
            }
          }
          JOINT rightEye
          {
            OFFSET -3.6576 8.04674 8.04672
            CHANNELS 3 Zrotation Xrotation Yrotation
            End Site
            {
              OFFSET 1 0 0
            }
          }
        }
      }
      JOINT rCollar
      {
        OFFSET -2.68224 19.2634 -4.8768
        CHANNELS 3 Zrotation Xrotation Yrotation
        JOINT rShldr
        {
          OFFSET -8.77824 -1.95073 1.46304
          CHANNELS 3 Zrotation Xrotation Yrotation
          JOINT rForeArm
          {
            OFFSET -28.1742 -1.7115 0.48768
            CHANNELS 3 Zrotation Xrotation Yrotation
            JOINT rHand
            {
              OFFSET -22.5879 0.773209 7.07136
              CHANNELS 3 Zrotation Xrotation Yrotation
              JOINT rThumb1
              {
                OFFSET -1.2192 -0.487915 3.41376
                CHANNELS 3 Zrotation Xrotation Yrotation
                JOINT rThumb2
                {
                  OFFSET -3.37035 -0.52449 3.41376
                  CHANNELS 3 Zrotation Xrotation Yrotation
                  End Site
                  {
                    OFFSET -1.78271 -1.18214 1.43049
                  }
                }
              }
              JOINT rIndex1
              {
                OFFSET -7.75947 0.938293 5.60832
                CHANNELS 3 Zrotation Xrotation Yrotation
                JOINT rIndex2
                {
                  OFFSET -2.54057 -0.884171 1.56538
                  CHANNELS 3 Zrotation Xrotation Yrotation
                  End Site
                  {
                    OFFSET -1.62519 -0.234802 1.16502
                  }
                }
              }
              JOINT rMid1
              {
                OFFSET -8.24714 1.18213 3.41376
                CHANNELS 3 Zrotation Xrotation Yrotation
                JOINT rMid2
                {
                  OFFSET -3.10165 -0.590103 1.0647
                  CHANNELS 3 Zrotation Xrotation Yrotation
                  End Site
                  {
                    OFFSET -2.48547 -0.328903 0.83742
                  }
                }
              }
              JOINT rRing1
              {
                OFFSET -8.82822 0.546677 1.51678
                CHANNELS 3 Zrotation Xrotation Yrotation
                JOINT rRing2
                {
                  OFFSET -2.60934 -0.819778 -0.0198488
                  CHANNELS 3 Zrotation Xrotation Yrotation
                  End Site
                  {
                    OFFSET -2.33842 -0.294052 0.168128
                  }
                }
              }
              JOINT rPinky1
              {
                OFFSET -8.27202 -0.0477905 -0.4584
                CHANNELS 3 Zrotation Xrotation Yrotation
                JOINT rPinky2
                {
                  OFFSET -1.82734 -0.647385 -0.700984
                  CHANNELS 3 Zrotation Xrotation Yrotation
                  End Site
                  {
                    OFFSET -1.69225 -0.51767 -0.607171
                  }
                }
              }
            }
          }
        }
      }
      JOINT lCollar
      {
        OFFSET 2.68224 19.2634 -4.8768
        CHANNELS 3 Zrotation Xrotation Yrotation
        JOINT lShldr
        {
          OFFSET 8.77824 -1.95073 1.46304
          CHANNELS 3 Zrotation Xrotation Yrotation
          JOINT lForeArm
          {
            OFFSET 28.1742 -1.7115 0.48768
            CHANNELS 3 Zrotation Xrotation Yrotation
            JOINT lHand
            {
              OFFSET 22.5879 0.773209 7.07136
              CHANNELS 3 Zrotation Xrotation Yrotation
              JOINT lThumb1
              {
                OFFSET 1.2192 -0.487915 3.41376
                CHANNELS 3 Zrotation Xrotation Yrotation
                JOINT lThumb2
                {
                  OFFSET 3.37035 -0.52449 3.41376
                  CHANNELS 3 Zrotation Xrotation Yrotation
                  End Site
                  {
                    OFFSET 1.78271 -1.18214 1.43049
                  }
                }
              }
              JOINT lIndex1
              {
                OFFSET 7.75947 0.938293 5.60832
                CHANNELS 3 Zrotation Xrotation Yrotation
                JOINT lIndex2
                {
                  OFFSET 2.54057 -0.884171 1.56538
                  CHANNELS 3 Zrotation Xrotation Yrotation
                  End Site
                  {
                    OFFSET 1.62519 -0.234802 1.16502
                  }
                }
              }
              JOINT lMid1
              {
                OFFSET 8.24714 1.18213 3.41376
                CHANNELS 3 Zrotation Xrotation Yrotation
                JOINT lMid2
                {
                  OFFSET 3.10165 -0.590103 1.0647
                  CHANNELS 3 Zrotation Xrotation Yrotation
                  End Site
                  {
                    OFFSET 2.48547 -0.328903 0.83742
                  }
                }
              }
              JOINT lRing1
              {
                OFFSET 8.82822 0.546677 1.51678
                CHANNELS 3 Zrotation Xrotation Yrotation
                JOINT lRing2
                {
                  OFFSET 2.60934 -0.819778 -0.0198488
                  CHANNELS 3 Zrotation Xrotation Yrotation
                  End Site
                  {
                    OFFSET 2.33842 -0.294052 0.168128
                  }
                }
              }
              JOINT lPinky1
              {
                OFFSET 8.27202 -0.0477905 -0.4584
                CHANNELS 3 Zrotation Xrotation Yrotation
                JOINT lPinky2
                {
                  OFFSET 1.82734 -0.647385 -0.700984
                  CHANNELS 3 Zrotation Xrotation Yrotation
                  End Site
                  {
                    OFFSET 1.69225 -0.51767 -0.607171
                  }
                }
              }
            }
          }
        }
      }
    }
  }
  JOINT rButtock
  {
    OFFSET -8.77824 4.35084 1.2192
    CHANNELS 3 Zrotation Xrotation Yrotation
    JOINT rThigh
    {
      OFFSET 0 -1.70687 -2.19456
      CHANNELS 3 Zrotation Xrotation Yrotation
      JOINT rShin
      {
        OFFSET 0 -36.8199 0.73152
        CHANNELS 3 Zrotation Xrotation Yrotation
        JOINT rFoot
        {
          OFFSET 0.73152 -45.1104 -5.12064
          CHANNELS 3 Zrotation Xrotation Yrotation
          End Site
          {
            OFFSET -1.1221 -3.69964 12.103
          }
        }
      }
    }
  }
  JOINT lButtock
  {
    OFFSET 8.77824 4.35084 1.2192
    CHANNELS 3 Zrotation Xrotation Yrotation
    JOINT lThigh
    {
      OFFSET 0 -1.70687 -2.19456
      CHANNELS 3 Zrotation Xrotation Yrotation
      JOINT lShin
      {
        OFFSET 0 -36.8199 0.73152
        CHANNELS 3 Zrotation Xrotation Yrotation
        JOINT lFoot
        {
          OFFSET -0.73152 -45.1104 -5.12064
          CHANNELS 3 Zrotation Xrotation Yrotation
          End Site
          {
            OFFSET 1.1221 -3.69964 12.103
          }
        }
      }
    }
  }
}
MOTION
Frames:	4
Frame Time:	0.00833333
50.8048 85.5269 137.97 0.0 0.0 0.0 2.34099 -0.00222384 0.0637207 0.64659 0.00595041 0.111937 5.14001e-14 7.95139e-16 -1.19271e-15 1.54356e-13 3.18055e-15 -3.52843e-15 -0.0 0.0 0.0 -0.0 0.0 0.0 2.59905e-14 -2.44598e-17 -4.47265e-16 5.44012e-13 -2.36057e-16 -9.34288e-15 9.37896e-12 -2.80903e-12 -3.24417e-13 1.0714e-10 2.68411e-12 -2.21685e-12 2.52777e-10 -2.79456e-13 -5.53735e-12 4.36534e-10 -4.89805e-13 -9.58937e-12 2.52782e-10 -2.82274e-13 -5.55325e-12 7.73091 5.47488 0.417314 2.52777e-10 -2.79889e-13 -5.54053e-12 2.90554 0.965183 0.102902 2.52784e-10 -2.7969e-13 -5.55007e-12 10.2786 0.731801 0.0259123 2.52772e-10 -2.76708e-13 -5.55325e-12 2.22167 -0.733487 -0.20892 2.5894e-14 -2.25186e-17 -6.4605e-16 5.40078e-13 -6.08778e-16 -1.15295e-14 9.34328e-12 2.77941e-12 -3.08514e-13 1.0716e-10 -2.91036e-12 -2.22639e-12 2.52749e-10 -2.86057e-13 -5.55961e-12 4.365e-10 -5.02528e-13 -9.58699e-12 2.52744e-10 -2.83865e-13 -5.54689e-12 -7.73091 5.47488 -0.417314 2.52748e-10 -2.85952e-13 -5.55325e-12 -2.90554 0.965183 -0.102902 2.52743e-10 -2.85654e-13 -5.55007e-12 -10.2786 0.731801 -0.0259123 2.52753e-10 -2.83865e-13 -5.55007e-12 -2.22167 -0.733487 0.20892 -2.03217e-16 0.0 -3.88251e-19 2.21587 -8.02969 -0.231386 0.00606924 8.9736 0.152049 -0.478092 -0.95142 0.0349071 2.03217e-16 0.0 3.88251e-19 1.35245 -1.92788 -0.00536433 0.00846377 -2.07867 0.0694352 0.423462 3.99898 -0.127231
52.1352 84.8587 126.346 -179.088 4.0024 179.664 2.4805 0.833644 0.179904 0.709243 -2.49469 0.205607 -1.58473 2.38737 -0.515885 3.1206 -5.71338 -0.20953 -0.0 0.0 0.0 -0.0 0.0 0.0 3.38166e-14 1.57982e-14 -2.40871e-15 21.4094 9.70247 -2.19345 -6.37491 -3.51062 9.20035 0.110308 7.38269 1.00678 3.26623e-10 -1.75517e-11 -1.00078e-10 5.63035e-10 -2.3326e-11 -1.76785e-10 3.26629e-10 -1.75551e-11 -1.00092e-10 7.73091 5.47488 0.417314 3.26624e-10 -1.75538e-11 -1.00078e-10 2.90554 0.965183 0.102902 3.26632e-10 -1.75529e-11 -1.00085e-10 10.2786 0.731801 0.0259123 3.26621e-10 -1.755e-11 -1.00087e-10 2.22167 -0.733487 -0.20892 3.37227e-14 1.57991e-14 -2.63467e-15 -21.9511 5.11884 2.745 5.52112 -2.83693 -8.23719 -0.0385166 4.35877 -0.606215 -1.13596e-10 -2.99735e-10 4.35232e-11 -1.96258e-10 -5.1514e-10 8.03436e-11 -1.13608e-10 -2.99736e-10 4.35352e-11 -7.73091 5.47488 -0.417314 -1.13601e-10 -2.99739e-10 4.35288e-11 -2.90554 0.965183 -0.102902 -1.13601e-10 -2.99735e-10 4.35302e-11 -10.2786 0.731801 -0.0259123 -1.13592e-10 -2.99733e-10 4.35285e-11 -2.22167 -0.733487 0.20892 -2.03217e-16 0.0 -3.88251e-19 4.206 -7.83067 4.74664 0.0166608 11.976 0.205469 -1.23318 -4.15201 -7.91646 2.03217e-16 0.0 3.88251e-19 0.631997 -3.28943 -5.55983 -0.0099126 3.54521 -0.108125 1.13263 -1.33959 5.65437
52.1199 84.8511 126.428 -179.063 3.8142 179.755 2.62358 1.71283 0.301146 0.785452 -5.13809 0.305126 -3.21351 4.90418 -1.06498 6.37675 -11.7358 -0.439409 -0.0 0.0 0.0 -0.0 0.0 0.0 4.28086e-14 3.3286e-14 -4.58447e-15 44.9307 19.8771 -4.7256 -11.8905 -6.90783 19.0177 -0.0647577 15.2081 2.13223 4.10119e-10 -3.48919e-11 -2.05393e-10 7.06091e-10 -4.5596e-11 -3.62974e-10 4.10125e-10 -3.48959e-11 -2.05406e-10 7.73091 5.47488 0.417314 4.1012e-10 -3.48957e-11 -2.0539e-10 2.90554 0.965183 0.102902 4.10129e-10 -3.48942e-11 -2.05396e-10 10.2786 0.731801 0.0259123 4.10119e-10 -3.48914e-11 -2.05395e-10 2.22167 -0.733487 -0.20892 4.27214e-14 3.32858e-14 -4.83916e-15 -45.7274 10.4863 5.69432 10.4767 -5.63756 -17.0041 0.0223131 8.98408 -1.26153 -5.17885e-10 -6.32317e-10 9.78591e-11 -8.94563e-10 -1.08672e-09 1.79931e-10 -5.17903e-10 -6.32322e-10 9.78702e-11 -7.73091 5.47488 -0.417314 -5.17894e-10 -6.32326e-10 9.78639e-11 -2.90554 0.965183 -0.102902 -5.17889e-10 -6.32319e-10 9.78633e-11 -10.2786 0.731801 -0.0259123 -5.17879e-10 -6.32317e-10 9.78599e-11 -2.22167 -0.733487 0.20892 -2.03217e-16 0.0 -3.88251e-19 6.27213 -7.55959 10.0013 0.0214607 15.148 0.263813 -2.98972 -7.30762 -16.4149 2.03217e-16 0.0 3.88251e-19 -0.414156 -4.66687 -11.4511 0.00894621 9.49058 -0.299465 3.05189 -6.84886 11.8479
52.101 84.8451 126.487 -179.011 3.7005 179.815 2.74935 2.50533 0.412609 0.859304 -7.49584 0.395744 -4.62436 7.15977 -1.55847 9.23147 -17.1392 -0.654535 -0.0 0.0 0.0 -0.0 0.0 0.0 4.94689e-14 4.74435e-14 -6.3316e-15 66.7206 28.9242 -7.41545 -15.8499 -9.44728 27.9605 -0.499597 22.1196 3.23352 4.74316e-10 -5.20962e-11 -2.89159e-10 8.16038e-10 -6.89985e-11 -5.11178e-10 4.74322e-10 -5.21007e-11 -2.89169e-10 7.73091 5.47488 0.417314 4.74318e-10 -5.21015e-11 -2.89153e-10 2.90554 0.965183 0.102902 4.74327e-10 -5.20994e-11 -2.89156e-10 10.2786 0.731801 0.0259123 4.74318e-10 -5.20967e-11 -2.89153e-10 2.22167 -0.733487 -0.20892 4.93801e-14 4.74422e-14 -6.61192e-15 -67.3643 15.213 8.50216 14.1817 -7.80861 -24.9277 0.16737 13.0704 -1.86163 -8.46287e-10 -8.98632e-10 1.41689e-10 -1.46177e-09 -1.54442e-09 2.60205e-10 -8.46311e-10 -8.98639e-10 1.41699e-10 -7.73091 5.47488 -0.417314 -8.463e-10 -8.98644e-10 1.41693e-10 -2.90554 0.965183 -0.102902 -8.46291e-10 -8.98635e-10 1.41691e-10 -10.2786 0.731801 -0.0259123 -8.46281e-10 -8.98632e-10 1.41686e-10 -2.22167 -0.733487 0.20892 -2.03217e-16 0.0 -3.88251e-19 8.07653 -7.2696 14.6857 0.020103 17.9808 0.318153 -5.35327 -9.75901 -24.1273 2.03217e-16 0.0 3.88251e-19 -1.59033 -5.80439 -16.7295 0.0604581 14.7925 -0.478388 5.78113 -11.4898 17.5756
